<?xml version="1.0" encoding="UTF-8" standalone="no"?>
<!DOCTYPE svg PUBLIC "-//W3C//DTD SVG 1.1//EN" "http://www.w3.org/Graphics/SVG/1.1/DTD/svg11.dtd">
<svg width="100%" height="100%" viewBox="0 0 420 386" version="1.1" xmlns="http://www.w3.org/2000/svg" xmlns:xlink="http://www.w3.org/1999/xlink" xml:space="preserve" xmlns:serif="http://www.serif.com/" style="fill-rule:evenodd;clip-rule:evenodd;stroke-linejoin:round;stroke-miterlimit:2;">
    <g transform="matrix(1,0,0,1,-440.252,-989.996)">
        <path d="M487.761,1111.95C516.016,1040.55 585.701,989.996 667.101,989.996C773.506,989.996 859.893,1076.38 859.893,1182.79C859.893,1289.19 773.506,1375.58 667.101,1375.58C585.701,1375.58 516.016,1325.02 487.761,1253.63C497.404,1253.62 506.598,1251.69 514.981,1248.19C540.368,1307.09 598.954,1348.35 667.101,1348.35C758.476,1348.35 832.661,1274.16 832.661,1182.79C832.661,1091.41 758.476,1017.23 667.101,1017.23C598.954,1017.23 540.368,1058.49 514.981,1117.38C506.602,1113.88 497.406,1111.95 487.761,1111.95Z" style="fill:url(#_Linear1);"/>
        <g transform="matrix(1.01694,0,0,1.01694,-179.838,-376.122)">
            <g id="blue-piece" transform="matrix(0.184491,4.64533e-34,-4.64533e-34,0.184491,609.179,1485.72)">
                <path d="M455.398,412.197C489.19,369.176 509.344,314.935 509.344,255.986C509.344,116.207 396.031,2.893 256.251,2.893C225.845,2.893 196.693,8.26 169.685,18.09C272.435,71.989 408.349,247.839 455.398,412.197Z" style="fill:rgb(62,91,169);fill-rule:nonzero;"/>
            </g>
            <g id="left-red-piece" transform="matrix(0.184491,4.64533e-34,-4.64533e-34,0.184491,609.179,1485.72)">
                <path d="M220.003,164.337C180.522,121.804 136.308,88.025 89.48,65.622C36.573,112.011 3.159,180.092 3.159,255.986C3.159,319.8 26.785,378.09 65.756,422.609C100.111,319.392 164.697,219.907 220.003,164.337Z" style="fill:rgb(159,29,32);fill-rule:nonzero;"/>
            </g>
            <g id="bottom-red-piece" transform="matrix(0.184491,4.64533e-34,-4.64533e-34,0.184491,609.179,1485.72)">
                <path d="M266.638,221.727C211.846,280.778 157.246,384.149 137.486,479.521C172.905,498.378 213.326,509.08 256.252,509.08C300.384,509.08 341.87,497.774 377.992,477.917C357.171,381.712 317.868,293.604 266.638,221.727Z" style="fill:rgb(159,29,32);fill-rule:nonzero;"/>
            </g>
        </g>
        <g transform="matrix(3.41141,0,0,3.41141,-2119.53,-5405.7)">
            <path d="M787.513,1951.83L787.513,1910.79L801.906,1910.79C804.739,1910.79 807.221,1911.24 809.351,1912.12C811.481,1913.01 813.133,1914.38 814.305,1916.21C815.478,1918.05 816.064,1920.4 816.064,1923.25C816.064,1926.18 815.434,1928.56 814.173,1930.37C812.913,1932.19 811.198,1933.63 809.029,1934.68L818.263,1951.83L810.465,1951.83L802.375,1936.32L794.431,1936.32L794.431,1951.83L787.513,1951.83ZM794.431,1930.52L800.616,1930.52C803.606,1930.52 805.741,1929.87 807.021,1928.57C808.301,1927.27 808.941,1925.58 808.941,1923.51C808.941,1921.32 808.306,1919.62 807.036,1918.41C805.765,1917.2 803.684,1916.6 800.792,1916.6L794.431,1916.6L794.431,1930.52Z" style="fill:url(#_Linear2);fill-rule:nonzero;"/>
            <path d="M835.558,1952.65C833.877,1952.65 832.167,1952.5 830.428,1952.21C828.688,1951.92 827.081,1951.55 825.606,1951.11C824.13,1950.67 822.933,1950.23 822.015,1949.78L822.865,1942.57C824.116,1943.17 825.484,1943.75 826.969,1944.31C828.454,1944.87 830.012,1945.33 831.644,1945.69C833.276,1946.05 834.922,1946.23 836.584,1946.23C838.811,1946.23 840.595,1945.81 841.933,1944.96C843.272,1944.11 843.941,1942.8 843.941,1941.04C843.941,1939.69 843.58,1938.6 842.857,1937.76C842.134,1936.92 841.039,1936.18 839.573,1935.55C838.108,1934.91 836.251,1934.22 834.004,1933.48C831.796,1932.76 829.793,1931.92 827.995,1930.97C826.197,1930.03 824.765,1928.8 823.7,1927.29C822.635,1925.79 822.103,1923.85 822.103,1921.46C822.103,1919.23 822.66,1917.25 823.774,1915.51C824.887,1913.77 826.549,1912.41 828.757,1911.44C830.965,1910.46 833.691,1909.97 836.935,1909.97C839.515,1909.97 841.938,1910.25 844.205,1910.82C846.472,1911.39 848.377,1912 849.921,1912.67L849.218,1919.7C846.951,1918.57 844.806,1917.73 842.783,1917.18C840.761,1916.63 838.684,1916.36 836.554,1916.36C834.287,1916.36 832.489,1916.75 831.161,1917.53C829.832,1918.32 829.167,1919.54 829.167,1921.2C829.167,1922.43 829.509,1923.42 830.193,1924.19C830.877,1924.95 831.859,1925.6 833.139,1926.15C834.419,1926.7 835.987,1927.26 837.844,1927.82C840.775,1928.74 843.257,1929.76 845.29,1930.87C847.322,1931.99 848.861,1933.34 849.906,1934.94C850.952,1936.55 851.475,1938.53 851.475,1940.9C851.475,1942.26 851.24,1943.65 850.771,1945.04C850.302,1946.44 849.477,1947.71 848.294,1948.85C847.112,1950 845.485,1950.92 843.414,1951.61C841.342,1952.3 838.723,1952.65 835.558,1952.65Z" style="fill:url(#_Linear3);fill-rule:nonzero;"/>
        </g>
    </g>
    <defs>
        <linearGradient id="_Linear1" x1="0" y1="0" x2="1" y2="0" gradientUnits="userSpaceOnUse" gradientTransform="matrix(7.5776e-15,123.752,-123.752,7.5776e-15,502.572,1120.55)"><stop offset="0" style="stop-color:rgb(62,91,169);stop-opacity:1"/><stop offset="1" style="stop-color:rgb(159,29,32);stop-opacity:1"/></linearGradient>
        <linearGradient id="_Linear2" x1="0" y1="0" x2="1" y2="0" gradientUnits="userSpaceOnUse" gradientTransform="matrix(19.7947,19.4141,-19.4141,19.7947,809.447,1925.82)"><stop offset="0" style="stop-color:rgb(62,91,169);stop-opacity:1"/><stop offset="1" style="stop-color:rgb(159,29,32);stop-opacity:1"/></linearGradient>
        <linearGradient id="_Linear3" x1="0" y1="0" x2="1" y2="0" gradientUnits="userSpaceOnUse" gradientTransform="matrix(19.7947,19.4141,-19.4141,19.7947,809.447,1925.82)"><stop offset="0" style="stop-color:rgb(62,91,169);stop-opacity:1"/><stop offset="1" style="stop-color:rgb(159,29,32);stop-opacity:1"/></linearGradient>
    </defs>
</svg>
