<?xml version="1.0" encoding="UTF-8" standalone="no"?>
<!DOCTYPE svg PUBLIC "-//W3C//DTD SVG 1.1//EN" "http://www.w3.org/Graphics/SVG/1.1/DTD/svg11.dtd">
<svg width="100%" height="100%" viewBox="0 0 384 384" version="1.1" xmlns="http://www.w3.org/2000/svg" xmlns:xlink="http://www.w3.org/1999/xlink" xml:space="preserve" xmlns:serif="http://www.serif.com/" style="fill-rule:evenodd;clip-rule:evenodd;stroke-linejoin:round;stroke-miterlimit:2;">
    <g transform="matrix(1,0,0,1,-3899.42,-1818.63)">
        <g>
            <g transform="matrix(1,0,0,-1,2349.67,3201.11)">
                <path d="M1866.18,1295.03C1889.83,1266.8 1904.08,1230.42 1904.08,1190.73C1904.08,1151.04 1889.83,1114.65 1866.18,1086.42L1886.87,1065.74C1915.77,1099.32 1933.25,1143 1933.25,1190.73C1933.25,1238.46 1915.77,1282.14 1886.87,1315.72L1866.18,1295.03Z" style="fill:rgb(62,91,169);"/>
            </g>
            <g transform="matrix(1,0,0,-1,2349.67,3201.11)">
                <path d="M1596.13,1065.74L1616.82,1086.42C1593.17,1114.65 1578.92,1151.04 1578.92,1190.73C1578.92,1230.42 1593.17,1266.8 1616.82,1295.03L1596.13,1315.72C1567.23,1282.14 1549.75,1238.46 1549.75,1190.73C1549.75,1143 1567.23,1099.32 1596.13,1065.74Z" style="fill:rgb(62,91,169);"/>
            </g>
            <g transform="matrix(1,0,0,-1,2349.67,3201.11)">
                <path d="M1616.51,1045.36C1650.09,1016.46 1693.77,998.98 1741.5,998.98C1789.23,998.98 1832.91,1016.46 1866.5,1045.36L1845.81,1066.05C1817.58,1042.4 1781.19,1028.15 1741.5,1028.15C1701.81,1028.15 1665.43,1042.4 1637.2,1066.05L1616.51,1045.36Z" style="fill:rgb(159,29,32);"/>
            </g>
            <path d="M4154.23,1860.5L4145.67,1872.47L4215.85,1885.38L4180.92,1823.16L4171.54,1836.29C4171.1,1836.07 4170.63,1835.84 4170.13,1835.62C4146.04,1824.7 4119.31,1818.63 4091.17,1818.63C4043.44,1818.63 3999.76,1836.1 3966.18,1865.01L3986.86,1885.7C4015.1,1862.05 4051.48,1847.8 4091.17,1847.8C4113.53,1847.8 4134.84,1852.32 4154.23,1860.5Z" style="fill:url(#_Linear1);"/>
            <g transform="matrix(1,0,0,1,2156.57,1021.38)">
                <path d="M1974.52,1064.2C1964.97,1064.2 1956.37,1063.28 1948.7,1061.45C1941.04,1059.62 1933.35,1056.97 1925.63,1053.5L1928.82,1022.84C1936.24,1027.18 1943.54,1030.67 1950.73,1033.32C1957.91,1035.97 1965.45,1037.3 1973.36,1037.3C1980.5,1037.3 1985.94,1036.14 1989.7,1033.83C1993.46,1031.51 1995.34,1027.85 1995.34,1022.84C1995.34,1019.08 1994.36,1015.99 1992.38,1013.58C1990.4,1011.17 1987.44,1009 1983.48,1007.07C1979.53,1005.14 1974.61,1003.07 1968.73,1000.85C1959.86,997.575 1952.32,994.008 1946.1,990.151C1939.88,986.295 1935.15,981.643 1931.92,976.195C1928.69,970.747 1927.08,964.022 1927.08,956.02C1927.08,947.728 1929.25,940.4 1933.59,934.036C1937.93,927.673 1944.1,922.707 1952.1,919.14C1960.1,915.572 1969.6,913.789 1980.59,913.789C1989.75,913.789 1997.97,914.801 2005.25,916.826C2012.53,918.851 2019.26,921.599 2025.42,925.07L2022.24,955.73C2015.78,951.199 2009.28,947.463 2002.72,944.522C1996.16,941.581 1988.98,940.111 1981.17,940.111C1975,940.111 1970.23,941.364 1966.85,943.871C1963.48,946.378 1961.79,949.945 1961.79,954.573C1961.79,960.166 1964.15,964.36 1968.88,967.156C1973.6,969.952 1981.17,973.375 1991.58,977.424C1998.33,980.028 2004.19,982.727 2009.15,985.523C2014.12,988.319 2018.24,991.405 2021.52,994.779C2024.8,998.154 2027.23,1001.99 2028.82,1006.28C2030.41,1010.57 2031.21,1015.51 2031.21,1021.1C2031.21,1030.26 2029.02,1038.05 2024.63,1044.46C2020.24,1050.87 2013.83,1055.76 2005.39,1059.14C1996.96,1062.51 1986.67,1064.2 1974.52,1064.2ZM1837.99,1061.31L1837.99,916.681L1871.54,916.681L1872.41,932.012C1876.08,927.962 1881.23,923.913 1887.89,919.863C1894.54,915.813 1901.82,913.789 1909.72,913.789C1912.04,913.789 1914.16,913.982 1916.09,914.367L1913.49,949.656C1911.36,949.077 1909.27,948.692 1907.19,948.499C1905.12,948.306 1903.07,948.21 1901.05,948.21C1894.97,948.21 1889.43,949.608 1884.41,952.404C1879.4,955.2 1875.88,958.623 1873.86,962.672L1873.86,1061.31L1837.99,1061.31Z" style="fill:url(#_Linear2);fill-rule:nonzero;"/>
            </g>
        </g>
    </g>
    <defs>
        <linearGradient id="_Linear1" x1="0" y1="0" x2="1" y2="0" gradientUnits="userSpaceOnUse" gradientTransform="matrix(161.444,0,0,161.444,4008.52,1852.16)"><stop offset="0" style="stop-color:rgb(62,91,169);stop-opacity:1"/><stop offset="1" style="stop-color:rgb(159,29,32);stop-opacity:1"/></linearGradient>
        <linearGradient id="_Linear2" x1="0" y1="0" x2="1" y2="0" gradientUnits="userSpaceOnUse" gradientTransform="matrix(96.7893,75.8459,-75.8459,96.7893,1877.12,952.976)"><stop offset="0" style="stop-color:rgb(62,91,169);stop-opacity:1"/><stop offset="1" style="stop-color:rgb(159,29,32);stop-opacity:1"/></linearGradient>
    </defs>
</svg>
